<?xml version="1.0" encoding="iso-8859-1"?>
<!-- Generator: Adobe Illustrator 19.0.0, SVG Export Plug-In . SVG Version: 6.00 Build 0)  -->
<svg version="1.1" id="Layer_1" xmlns="http://www.w3.org/2000/svg" xmlns:xlink="http://www.w3.org/1999/xlink" x="0px" y="0px"
	 viewBox="0 0 512 512" style="enable-background:new 0 0 512 512;" xml:space="preserve">
<polygon style="fill:#FFFFFF;" points="10.5,235.102 10.5,392.882 131.729,392.882 131.729,278.407 88.424,235.102 "/>
<polygon style="fill:#0F8EE3;" points="131.729,278.407 88.424,235.102 88.424,278.407 "/>
<rect x="399.193" y="432.389" style="fill:#ECEBED;" width="68.42" height="69.162"/>
<g>
	<path style="fill:#FEBBA0;" d="M213.885,319.125v20.355c0,6.8-4.089,12.934-10.366,15.55l-67.248,28.02
		c-14.207,5.92-23.461,22.01-23.461,37.401v81.1h286.38v-81.1c0-15.39-9.255-31.482-23.461-37.401l-67.248-28.02
		c-6.278-2.615-10.366-8.75-10.366-15.55v-20.355H213.885z"/>
	<path style="fill:#FEBBA0;" d="M350.041,168.712v94.73c-1.126,14.736-8.48,27.856-19.362,35.042l-56.411,32.346
		c-11.361,7.503-25.175,7.503-36.537,0l-56.58-32.346c-10.881-7.186-18.066-20.306-19.194-35.042v-94.73l65.88-41.705l60.669,6.876
		l44.607-6.876L350.041,168.712v94.73"/>
</g>
<path style="fill:#FFE069;" d="M375.73,383.05l-67.248-28.02c-1.989-0.829-3.757-2.014-5.246-3.459l-47.137,47.137l-47.237-47.237
	c-1.51,1.489-3.308,2.71-5.343,3.558l-67.248,28.02c-14.207,5.92-23.461,22.01-23.461,37.401v81.1h286.38v-81.1
	C399.191,405.06,389.935,388.968,375.73,383.05z"/>
<path style="fill:#FF5957;" d="M314.419,19.853c46.122,6.269,142.252,75.567,35.622,227.788
	c-2.039-59.559,8.061-88.816-65.777-113.757C206.962,107.774,268.297,13.584,314.419,19.853z"/>
<polygon style="fill:#FFFFFF;" points="208.912,351.473 221.395,431.717 256.051,398.71 "/>
<circle style="fill:#FEBBA0;" cx="350.041" cy="231.737" r="23.406"/>
<path style="fill:#FF5957;" d="M261.603,10.449c-100.691,0-131.304,88.54-131.304,129.317
	c-36.517,50.943,3.29,96.523,31.473,112.539c0-9.481,0-12.946,0-25.066c0-32.948,30.934-58.38,78.088-58.38
	c45.447,0,72.875-25.185,90.812-59.792C358.266,54.81,323.831,10.449,261.603,10.449z"/>
<g>
	<polygon style="fill:#FFFFFF;" points="303.191,351.473 290.707,431.717 256.051,398.71 	"/>
	<path style="fill:#FFFFFF;" d="M473.39,336.835l-16.704,28.623l-16.704-28.623H473.39z"/>
</g>
<path style="fill:#FF5957;" d="M456.651,198.552c4.623,0,8.795,1.865,11.819,4.89c3.025,3.025,4.889,7.196,4.89,11.819l0.006,9.768
	l-33.413-0.006l0.001-9.774C439.952,206.025,447.431,198.547,456.651,198.552L456.651,198.552z"/>
<path style="fill:#0F8EE3;" d="M473.366,225.027l0.024,111.808l-33.407-0.001l-0.029-111.815L473.366,225.027z"/>
<path d="M96.4,314.151H45.829c-5.771,0-10.449-4.678-10.449-10.449c0-5.771,4.678-10.449,10.449-10.449H96.4
	c5.771,0,10.449,4.678,10.449,10.449C106.849,309.473,102.171,314.151,96.4,314.151z"/>
<path d="M96.4,373.259H45.829c-5.771,0-10.449-4.678-10.449-10.449c0-5.771,4.678-10.449,10.449-10.449H96.4
	c5.771,0,10.449,4.678,10.449,10.449C106.849,368.581,102.171,373.259,96.4,373.259z"/>
<path d="M96.4,343.705H45.829c-5.771,0-10.449-4.678-10.449-10.449c0-5.771,4.678-10.449,10.449-10.449H96.4
	c5.771,0,10.449,4.678,10.449,10.449C106.849,339.027,102.171,343.705,96.4,343.705z"/>
<path d="M139.119,271.018l-43.305-43.305c-1.959-1.959-4.617-3.061-7.388-3.061H10.5c-5.771,0-10.449,4.678-10.449,10.449v157.78
	c0,5.771,4.678,10.449,10.449,10.449h81.153c5.771,0,10.449-4.678,10.449-10.449c0-5.771-4.678-10.449-10.449-10.449H20.949V245.551
	h57.026v32.856c0,5.771,4.678,10.449,10.449,10.449h32.856v69.517c0,5.771,4.678,10.449,10.449,10.449
	c5.771,0,10.449-4.678,10.449-10.449v-79.966C142.178,275.636,141.078,272.979,139.119,271.018z M98.873,267.958v-7.63l7.63,7.63
	H98.873z"/>
<path d="M296.584,467.069h-0.137c-5.771,0-10.449-4.678-10.449-10.449c0-5.771,4.678-10.449,10.449-10.449h0.137
	c5.771,0,10.449,4.678,10.449,10.449C307.033,462.391,302.355,467.069,296.584,467.069z"/>
<path d="M369.59,467.069h-39.202c-5.771,0-10.449-4.678-10.449-10.449c0-5.771,4.678-10.449,10.449-10.449h39.202
	c5.771,0,10.449,4.678,10.449,10.449C380.039,462.391,375.361,467.069,369.59,467.069z"/>
<path d="M256,467.167c-2.674,0-5.349-1.02-7.388-3.06l-0.097-0.097c-4.08-4.08-4.08-10.697,0-14.778c4.08-4.08,10.697-4.08,14.778,0
	l0.097,0.097c4.08,4.08,4.08,10.697,0,14.778C261.349,466.147,258.675,467.167,256,467.167z"/>
<path d="M10.586,512h-0.137C4.678,512,0,507.322,0,501.551c0-5.771,4.678-10.449,10.449-10.449h0.137
	c5.771,0,10.449,4.678,10.449,10.449C21.035,507.322,16.357,512,10.586,512z"/>
<path d="M501.551,512h-0.137c-5.771,0-10.449-4.678-10.449-10.449c0-5.771,4.678-10.449,10.449-10.449h0.137
	c5.771,0,10.449,4.678,10.449,10.449C512,507.322,507.322,512,501.551,512z"/>
<path d="M294.106,235.473c-6.441,0-11.68-5.239-11.68-11.679c0-6.441,5.239-11.68,11.68-11.68c6.441,0,11.68,5.239,11.68,11.68
	C305.786,230.234,300.547,235.473,294.106,235.473z"/>
<path d="M217.894,235.473c-6.441,0-11.68-5.239-11.68-11.679c0-6.441,5.239-11.68,11.68-11.68s11.68,5.239,11.68,11.68
	C229.572,230.234,224.333,235.473,217.894,235.473z"/>
<path d="M256.044,292.453c-11.391,0-20.66-9.268-20.66-20.66c0-5.771,4.678-10.449,10.449-10.449h20.422
	c5.771,0,10.449,4.678,10.449,10.449C276.703,283.186,267.435,292.453,256.044,292.453z"/>
<path d="M174.618,123.801c-1.037,0-2.09-0.155-3.132-0.482c-5.507-1.727-8.569-7.592-6.841-13.098
	c10.477-33.387,33.889-58.464,64.233-68.804c5.461-1.861,11.4,1.057,13.261,6.52c1.862,5.463-1.057,11.4-6.52,13.261
	c-32.82,11.185-46.062,39.437-51.035,55.281C183.184,120.943,179.062,123.801,174.618,123.801z"/>
<path d="M265.818,56.508h-0.142c-5.771,0-10.449-4.678-10.449-10.449s4.678-10.449,10.449-10.449h0.142
	c5.771,0,10.449,4.678,10.449,10.449S271.589,56.508,265.818,56.508z"/>
<path d="M483.839,336.833l-0.03-121.575c-0.001-7.259-2.824-14.08-7.95-19.206c-5.125-5.125-11.945-7.949-19.203-7.951
	c-0.004,0-0.008,0-0.013,0c-7.247,0-14.062,2.823-19.187,7.949c-5.128,5.128-7.952,11.946-7.951,19.197l0.028,121.591
	c0,1.921,0.528,3.714,1.431,5.259c-0.003,0.002-0.005,0.003-0.007,0.005l16.704,28.623c1.872,3.209,5.309,5.183,9.025,5.183
	c3.716,0,7.152-1.974,9.025-5.182l16.704-28.623c-0.004-0.002-0.007-0.003-0.01-0.005
	C483.329,340.511,483.839,338.702,483.839,336.833z M452.233,210.828c1.179-1.179,2.745-1.828,4.411-1.828c0.002,0,0.003,0,0.006,0
	c1.677,0,3.252,0.65,4.431,1.83c1.017,1.017,1.639,2.326,1.793,3.746l-6.394-0.001l-6.042-0.001
	C450.588,213.159,451.212,211.848,452.233,210.828z M462.919,235.474l0.02,90.912h-12.511l-0.024-90.914L462.919,235.474z"/>
<path d="M467.61,421.94h-57.97v-1.489c0-20.367-12.292-39.713-29.891-47.047l-67.248-28.019c-2.391-0.996-3.936-3.313-3.936-5.905
	V323.21l27.313-15.661c0.19-0.109,0.377-0.225,0.561-0.346c13.676-9.031,22.657-25.093,24.022-42.965
	c0.007-0.101,0.007-0.203,0.011-0.304c13.577-4.408,23.423-17.174,23.423-32.203c0-4.585-0.932-9.049-2.694-13.196
	c39.42-69.886,31.557-118.123,17.759-146.476C380.606,34.345,343,13.192,315.828,9.498c-2.624-0.356-5.319-0.484-8.042-0.393
	C294.548,3.171,278.882,0,261.603,0c-59.486,0-93.629,29.139-111.798,53.583c-21.003,28.26-29.15,60.652-29.898,82.834
	c-13.013,19.431-17.503,40.471-12.988,61.047c6.022,27.435,26.74,49.093,44.594,60.799c0.004,2.379,0.014,5.802,0.027,5.975
	c1.372,17.945,10.289,34.006,23.854,42.965c0.187,0.123,0.378,0.24,0.573,0.352l27.469,15.704v16.221
	c0,2.59-1.545,4.908-3.936,5.905l-67.249,28.02c-17.599,7.334-29.89,26.679-29.89,47.045v70.651H44.39
	c-5.771,0-10.449,4.678-10.449,10.449c0,5.771,4.678,10.449,10.449,10.449H467.61c5.771,0,10.449-4.678,10.449-10.449v-69.162
	C478.059,426.618,473.381,421.94,467.61,421.94z M457.161,442.838v13.683H409.64v-13.683H457.161z M343.533,41.845
	c13.821,8.328,27.803,21.21,36.636,39.36c15.843,32.553,11.051,74.17-13.782,120.887c-1.911-1.055-3.923-1.925-6.007-2.594
	l-0.101-8.091c-0.022-33.912-16.152-44.173-36.473-52.411c5.908-7.392,11.306-15.787,16.18-25.194
	C353.064,88.09,354.263,62.749,343.533,41.845z M151.324,227.238v4.47c-11.004-10.1-20.709-23.765-23.992-38.725
	c-3.473-15.821,0.382-31.678,11.459-47.13c1.273-1.775,1.957-3.904,1.957-6.088c0-17.973,6.765-48.064,25.831-73.715
	c22.266-29.96,54.238-45.152,95.023-45.152c28.468,0,50.941,10.021,61.656,27.491c9.36,15.261,8.685,35.127-1.863,55.869
	c-19.148,36.944-45.057,54.152-81.535,54.152c-25.109,0-46.926,6.57-63.095,18.999C160.359,190.021,151.324,207.717,151.324,227.238
	z M186.654,289.593c-7.985-5.406-13.285-15.293-14.246-26.572c0,0-0.101-8.616-0.275-9.373c0.057-0.443,0-26.412,0-26.412
	c0-28.221,27.903-47.931,67.728-47.931c26.538,0,49.331-8.055,68.193-24.018c23.42,8.919,31.327,12.041,31.327,36.188
	c0,0.044,0,0.087,0.001,0.131l0.21,16.849c0.071,5.72,4.728,10.318,10.448,10.318c4.238,0,8.218,2.086,10.646,5.58
	c1.511,2.173,2.309,4.724,2.309,7.377c0,7.144-5.813,12.956-12.956,12.956c-5.771,0-10.449,4.678-10.449,10.449
	c0,0.168,0,7.883,0,7.883c-0.949,11.05-6.443,21.176-14.42,26.577l-56.101,32.168c-0.191,0.109-0.377,0.225-0.561,0.346
	c-7.831,5.173-17.185,5.174-25.02,0c-0.187-0.124-0.377-0.241-0.573-0.352L186.654,289.593z M256.051,383.917l-33.835-33.906
	c1.365-3.271,2.118-6.833,2.118-10.532v-4.275l7.939,4.539c7.334,4.764,15.53,7.145,23.728,7.145c8.199,0,16.399-2.383,23.734-7.149
	l7.932-4.548v4.288c0,3.726,0.765,7.312,2.148,10.603L256.051,383.917z M287.936,381.551l-4.485,28.826l-12.45-11.857
	L287.936,381.551z M241.1,398.52l-12.45,11.858l-4.485-28.826L241.1,398.52z M123.258,420.451c0-11.777,7.322-23.71,17.031-27.756
	l60.536-25.223l10.244,65.851c0.598,3.842,3.28,7.035,6.962,8.287c1.1,0.374,2.236,0.556,3.361,0.556
	c2.641,0,5.234-1.002,7.208-2.883l27.449-26.143l27.449,26.143c1.975,1.88,4.566,2.883,7.208,2.883c1.126,0,2.261-0.182,3.361-0.556
	c3.681-1.252,6.363-4.444,6.962-8.287l10.238-65.811l60.441,25.183c9.709,4.046,17.031,15.978,17.031,27.756v11.938v58.713H123.258
	V420.451z M409.64,491.102v-13.683h47.521v13.683H409.64z"/>
<g>
</g>
<g>
</g>
<g>
</g>
<g>
</g>
<g>
</g>
<g>
</g>
<g>
</g>
<g>
</g>
<g>
</g>
<g>
</g>
<g>
</g>
<g>
</g>
<g>
</g>
<g>
</g>
<g>
</g>
</svg>
